<svg width="791" height="672" viewBox="0 0 791 672" fill="none" xmlns="http://www.w3.org/2000/svg">
<g filter="url(#filter0_d_18_2)">
<mask id="path-2-outside-1_18_2" maskUnits="userSpaceOnUse" x="483.577" y="79.1653" width="246.218" height="246.218" fill="black">
<rect fill="white" x="483.577" y="79.1653" width="246.218" height="246.218"/>
<path d="M595.801 306.322L585.205 230.923L509.806 241.52L502.741 191.254L578.14 180.657L567.543 105.258L617.809 98.1935L628.406 173.592L703.27 163.071L710.335 213.337L635.471 223.858L646.067 299.258L595.801 306.322Z"/>
</mask>
<path d="M595.801 306.322L585.205 230.923L509.806 241.52L502.741 191.254L578.14 180.657L567.543 105.258L617.809 98.1935L628.406 173.592L703.27 163.071L710.335 213.337L635.471 223.858L646.067 299.258L595.801 306.322Z" fill="#00FFA8" shape-rendering="crispEdges"/>
<path d="M595.801 306.322L588.869 307.296C589.407 311.125 592.947 313.792 596.776 313.254L595.801 306.322ZM585.205 230.923L592.136 229.949C591.598 226.12 588.059 223.453 584.23 223.991L585.205 230.923ZM509.806 241.52L502.874 242.494C503.412 246.322 506.951 248.99 510.78 248.452L509.806 241.52ZM502.741 191.254L501.767 184.322C497.939 184.86 495.271 188.4 495.809 192.228L502.741 191.254ZM578.14 180.657L579.114 187.589C582.943 187.051 585.61 183.511 585.072 179.683L578.14 180.657ZM567.543 105.258L566.569 98.3261C562.741 98.8641 560.073 102.404 560.612 106.232L567.543 105.258ZM617.809 98.1935L624.741 97.2193C624.203 93.3909 620.664 90.7236 616.835 91.2616L617.809 98.1935ZM628.406 173.592L621.474 174.567C622.012 178.395 625.552 181.062 629.38 180.524L628.406 173.592ZM703.27 163.071L710.202 162.097C709.664 158.268 706.125 155.601 702.296 156.139L703.27 163.071ZM710.335 213.337L711.309 220.269C715.137 219.731 717.805 216.191 717.267 212.363L710.335 213.337ZM635.471 223.858L634.496 216.927C630.668 217.465 628.001 221.004 628.539 224.833L635.471 223.858ZM646.067 299.258L647.042 306.189C650.87 305.651 653.537 302.112 652.999 298.283L646.067 299.258ZM602.733 305.348L592.136 229.949L578.273 231.897L588.869 307.296L602.733 305.348ZM584.23 223.991L508.831 234.588L510.78 248.452L586.179 237.855L584.23 223.991ZM516.737 240.545L509.673 190.279L495.809 192.228L502.874 242.494L516.737 240.545ZM503.715 198.186L579.114 187.589L577.166 173.725L501.767 184.322L503.715 198.186ZM585.072 179.683L574.475 104.284L560.612 106.232L571.208 181.631L585.072 179.683ZM568.518 112.19L618.784 105.125L616.835 91.2616L566.569 98.3261L568.518 112.19ZM610.878 99.1677L621.474 174.567L635.338 172.618L624.741 97.2193L610.878 99.1677ZM629.38 180.524L704.245 170.003L702.296 156.139L627.432 166.661L629.38 180.524ZM696.339 164.045L703.403 214.311L717.267 212.363L710.202 162.097L696.339 164.045ZM709.361 206.405L634.496 216.927L636.445 230.79L711.309 220.269L709.361 206.405ZM628.539 224.833L639.135 300.232L652.999 298.283L642.402 222.884L628.539 224.833ZM645.093 292.326L594.827 299.39L596.776 313.254L647.042 306.189L645.093 292.326Z" fill="#9FFFE3" fill-opacity="0.78" mask="url(#path-2-outside-1_18_2)"/>
</g>
<g filter="url(#filter1_d_18_2)">
<path d="M677.493 580.2L246.833 637.908L218.438 426.004L649.098 368.296C656.591 367.292 664.177 369.306 670.185 373.894C676.194 378.483 680.134 385.271 681.138 392.764L701.961 548.16C702.965 555.654 700.951 563.239 696.362 569.248C691.774 575.257 684.986 579.196 677.493 580.2Z" fill="#E2E2E2"/>
</g>
<path d="M380.969 458.152L275.017 472.35L289.214 578.302L395.166 564.104L380.969 458.152Z" fill="#999999"/>
<path d="M513.409 440.406L407.457 454.603L421.654 560.555L527.606 546.358L513.409 440.406Z" fill="#999999"/>
<path d="M645.813 422.664L539.861 436.861L554.059 542.813L660.011 528.616L645.813 422.664Z" fill="#999999"/>
<path d="M426.415 153.665L218.438 426.004L246.833 637.908L454.81 365.569L426.415 153.665Z" fill="#959595"/>
<g filter="url(#filter2_d_18_2)">
<path d="M454.81 365.569L73.3828 416.68C65.8894 417.684 58.304 415.67 52.2954 411.082C46.2868 406.493 42.347 399.705 41.3429 392.212L20.5201 236.816C19.516 229.322 21.5298 221.737 26.1184 215.728C30.707 209.719 37.4946 205.78 44.988 204.776L426.415 153.665L454.81 365.569Z" fill="#F6F6F6"/>
</g>
<path d="M170.997 232.938L65.0447 247.135L79.2421 353.087L185.194 338.89L170.997 232.938Z" fill="#CCCCCC"/>
<path d="M397.099 202.641L192.187 230.098L206.385 336.051L411.296 308.593L397.099 202.641Z" fill="#00BFFF"/>
<path d="M430.342 397.609L246.833 637.908L705.747 576.414L702.879 555.012L486.85 390.037L430.342 397.609Z" fill="url(#paint0_linear_18_2)"/>
<defs>
<filter id="filter0_d_18_2" x="471.74" y="71.1926" width="269.595" height="270.13" filterUnits="userSpaceOnUse" color-interpolation-filters="sRGB">
<feFlood flood-opacity="0" result="BackgroundImageFix"/>
<feColorMatrix in="SourceAlpha" type="matrix" values="0 0 0 0 0 0 0 0 0 0 0 0 0 0 0 0 0 0 127 0" result="hardAlpha"/>
<feMorphology radius="4" operator="dilate" in="SourceAlpha" result="effect1_dropShadow_18_2"/>
<feOffset dy="4"/>
<feGaussianBlur stdDeviation="10"/>
<feComposite in2="hardAlpha" operator="out"/>
<feColorMatrix type="matrix" values="0 0 0 0 0 0 0 0 0 0.695833 0 0 0 0 0.452292 0 0 0 0.38 0"/>
<feBlend mode="normal" in2="BackgroundImageFix" result="effect1_dropShadow_18_2"/>
<feBlend mode="normal" in="SourceGraphic" in2="effect1_dropShadow_18_2" result="shape"/>
</filter>
<filter id="filter1_d_18_2" x="188.438" y="342.044" width="543.775" height="329.864" filterUnits="userSpaceOnUse" color-interpolation-filters="sRGB">
<feFlood flood-opacity="0" result="BackgroundImageFix"/>
<feColorMatrix in="SourceAlpha" type="matrix" values="0 0 0 0 0 0 0 0 0 0 0 0 0 0 0 0 0 0 127 0" result="hardAlpha"/>
<feOffset dy="4"/>
<feGaussianBlur stdDeviation="15"/>
<feComposite in2="hardAlpha" operator="out"/>
<feColorMatrix type="matrix" values="0 0 0 0 0 0 0 0 0 0 0 0 0 0 0 0 0 0 0.28 0"/>
<feBlend mode="normal" in2="BackgroundImageFix" result="effect1_dropShadow_18_2"/>
<feBlend mode="normal" in="SourceGraphic" in2="effect1_dropShadow_18_2" result="shape"/>
</filter>
<filter id="filter2_d_18_2" x="0.267456" y="137.665" width="474.543" height="303.267" filterUnits="userSpaceOnUse" color-interpolation-filters="sRGB">
<feFlood flood-opacity="0" result="BackgroundImageFix"/>
<feColorMatrix in="SourceAlpha" type="matrix" values="0 0 0 0 0 0 0 0 0 0 0 0 0 0 0 0 0 0 127 0" result="hardAlpha"/>
<feOffset dy="4"/>
<feGaussianBlur stdDeviation="10"/>
<feComposite in2="hardAlpha" operator="out"/>
<feColorMatrix type="matrix" values="0 0 0 0 0 0 0 0 0 0 0 0 0 0 0 0 0 0 0.33 0"/>
<feBlend mode="normal" in2="BackgroundImageFix" result="effect1_dropShadow_18_2"/>
<feBlend mode="normal" in="SourceGraphic" in2="effect1_dropShadow_18_2" result="shape"/>
</filter>
<linearGradient id="paint0_linear_18_2" x1="350.822" y1="501.739" x2="611.025" y2="700.449" gradientUnits="userSpaceOnUse">
<stop offset="0.32" stop-opacity="0.15"/>
<stop offset="0.62" stop-opacity="0.02"/>
<stop offset="1" stop-opacity="0"/>
</linearGradient>
</defs>
</svg>
