<?xml version="1.0" encoding="UTF-8"?>
<!DOCTYPE svg PUBLIC "-//W3C//DTD SVG 1.1//EN" "http://www.w3.org/Graphics/SVG/1.1/DTD/svg11.dtd">
<svg xmlns="http://www.w3.org/2000/svg" version="1.1" width="510px" height="510px" style="shape-rendering:geometricPrecision; text-rendering:geometricPrecision; image-rendering:optimizeQuality; fill-rule:evenodd; clip-rule:evenodd" xmlns:xlink="http://www.w3.org/1999/xlink">
<g><path style="opacity:1" fill="#fdfefe" d="M -0.5,-0.5 C 169.5,-0.5 339.5,-0.5 509.5,-0.5C 509.5,169.5 509.5,339.5 509.5,509.5C 495.5,509.5 481.5,509.5 467.5,509.5C 468.907,507.692 470.074,505.692 471,503.5C 477.434,486.635 481.267,469.468 482.5,452C 482.078,426.399 478.245,400.899 471,375.5C 466.079,363.995 460.912,352.662 455.5,341.5C 456.995,341.585 457.995,340.919 458.5,339.5C 454.467,333.566 450.467,328.233 446.5,323.5C 447.648,321.851 448.981,320.351 450.5,319C 448.698,316.197 446.365,314.031 443.5,312.5C 445.358,310.476 447.025,308.309 448.5,306C 446.261,305.12 444.595,303.62 443.5,301.5C 445.975,297.858 448.642,294.358 451.5,291C 449.884,290.385 448.551,289.385 447.5,288C 451.547,282.742 455.713,277.575 460,272.5C 460.865,270.112 460.032,268.612 457.5,268C 483.08,236.664 498.08,200.831 502.5,160.5C 502.145,139.415 496.645,119.748 486,101.5C 460.324,64.7378 426.824,37.5711 385.5,20C 345.48,5.16894 308.147,10.1689 273.5,35C 245.238,60.7439 223.905,91.2439 209.5,126.5C 202.698,127.953 195.698,128.953 188.5,129.5C 125.521,137.581 62.5206,145.581 -0.5,153.5C -0.5,102.167 -0.5,50.8333 -0.5,-0.5 Z"/></g>
<g><path style="opacity:1" fill="#f6fefc" d="M 455.5,341.5 C 448.962,333.465 441.462,326.131 433,319.5C 432.833,319.167 432.667,318.833 432.5,318.5C 433.981,317.52 435.315,316.353 436.5,315C 430.277,310.059 423.61,305.892 416.5,302.5C 415.471,301.874 414.471,301.041 413.5,300C 415.5,298.667 417.5,297.333 419.5,296C 418.167,295.667 416.833,295.333 415.5,295C 418.167,293 420.833,291 423.5,289C 422.672,288.085 421.672,287.419 420.5,287C 423.5,284.5 426.5,282 429.5,279.5C 428.975,278.808 428.308,278.308 427.5,278C 434.136,272.366 440.469,266.366 446.5,260C 446.167,259.667 445.833,259.333 445.5,259C 456.457,246.019 464.957,231.519 471,215.5C 476.221,201.839 480.221,187.839 483,173.5C 485.324,157.124 482.991,141.458 476,126.5C 463.038,92.8792 440.871,67.3792 409.5,50C 396.168,43.8349 382.501,38.5015 368.5,34C 352.167,29.3333 335.833,29.3333 319.5,34C 275.04,49.4599 244.874,79.2933 229,123.5C 226.993,124.669 224.827,125.335 222.5,125.5C 220.5,125.833 218.5,126.167 216.5,126.5C 216.715,128.179 216.048,129.179 214.5,129.5C 214.5,128.5 214.5,127.5 214.5,126.5C 212.833,126.5 211.167,126.5 209.5,126.5C 223.905,91.2439 245.238,60.7439 273.5,35C 308.147,10.1689 345.48,5.16894 385.5,20C 426.824,37.5711 460.324,64.7378 486,101.5C 496.645,119.748 502.145,139.415 502.5,160.5C 498.08,200.831 483.08,236.664 457.5,268C 460.032,268.612 460.865,270.112 460,272.5C 455.713,277.575 451.547,282.742 447.5,288C 448.551,289.385 449.884,290.385 451.5,291C 448.642,294.358 445.975,297.858 443.5,301.5C 444.595,303.62 446.261,305.12 448.5,306C 447.025,308.309 445.358,310.476 443.5,312.5C 446.365,314.031 448.698,316.197 450.5,319C 448.981,320.351 447.648,321.851 446.5,323.5C 450.467,328.233 454.467,333.566 458.5,339.5C 457.995,340.919 456.995,341.585 455.5,341.5 Z"/></g>
<g><path style="opacity:1" fill="#f0fefb" d="M 416.5,302.5 C 414.574,304.293 412.241,305.293 409.5,305.5C 401.014,297.582 391.014,295.249 379.5,298.5C 381.292,297.691 383.292,297.191 385.5,297C 384.833,296.667 384.167,296.333 383.5,296C 385.949,295.275 388.283,294.275 390.5,293C 389.5,292.667 388.5,292.333 387.5,292C 390.583,290.861 393.583,289.528 396.5,288C 395.289,287.107 395.289,286.274 396.5,285.5C 402.145,281.449 408.478,277.449 415.5,273.5C 416.262,272.372 416.929,271.205 417.5,270C 422.789,266.38 427.789,262.38 432.5,258C 432.167,257.667 431.833,257.333 431.5,257C 441.668,247.494 449.502,236.327 455,223.5C 463.619,204.355 468.786,184.355 470.5,163.5C 466.837,129.341 452.837,100.174 428.5,76C 407.188,60.5161 383.521,50.1828 357.5,45C 342.255,42.9647 327.588,44.9647 313.5,51C 297.496,57.9932 282.83,66.9932 269.5,78C 256.775,90.599 247.441,105.432 241.5,122.5C 239.805,123.174 238.138,123.841 236.5,124.5C 234.81,124.242 232.81,124.242 230.5,124.5C 230.313,126.564 229.813,128.564 229,130.5C 226.594,128.913 224.428,127.247 222.5,125.5C 224.827,125.335 226.993,124.669 229,123.5C 244.874,79.2933 275.04,49.4599 319.5,34C 335.833,29.3333 352.167,29.3333 368.5,34C 382.501,38.5015 396.168,43.8349 409.5,50C 440.871,67.3792 463.038,92.8792 476,126.5C 482.991,141.458 485.324,157.124 483,173.5C 480.221,187.839 476.221,201.839 471,215.5C 464.957,231.519 456.457,246.019 445.5,259C 445.833,259.333 446.167,259.667 446.5,260C 440.469,266.366 434.136,272.366 427.5,278C 428.308,278.308 428.975,278.808 429.5,279.5C 426.5,282 423.5,284.5 420.5,287C 421.672,287.419 422.672,288.085 423.5,289C 420.833,291 418.167,293 415.5,295C 416.833,295.333 418.167,295.667 419.5,296C 417.5,297.333 415.5,298.667 413.5,300C 414.471,301.041 415.471,301.874 416.5,302.5 Z"/></g>
<g><path style="opacity:1" fill="#eafdf9" d="M 379.5,298.5 C 374.289,299.815 368.956,300.482 363.5,300.5C 363.918,299.778 364.584,299.278 365.5,299C 349.809,298.701 334.309,296.868 319,293.5C 317.853,294.458 316.853,294.125 316,292.5C 315.667,292.833 315.333,293.167 315,293.5C 309.424,290.645 304.258,287.811 299.5,285C 295.021,280.533 291.687,275.367 289.5,269.5C 304.094,273.46 319.428,278.293 335.5,284C 354.361,288.777 371.695,286.777 387.5,278C 387.167,277.667 386.833,277.333 386.5,277C 391.167,274.667 395.833,272.333 400.5,270C 401.833,269.333 401.833,268.667 400.5,268C 425.335,255.554 442.168,236.054 451,209.5C 456.865,195.042 460.365,180.042 461.5,164.5C 457.485,131.304 443.485,103.138 419.5,80C 393.867,62.3431 365.534,54.0098 334.5,55C 308.323,61.5369 285.823,74.3702 267,93.5C 261.134,101.895 256.301,110.895 252.5,120.5C 248.973,122.858 246.806,126.191 246,130.5C 245.667,130.167 245.333,129.833 245,129.5C 243.586,133.984 241.919,138.317 240,142.5C 237.607,144.619 236.274,147.285 236,150.5C 235.667,149.833 235.333,149.167 235,148.5C 234.79,150.058 234.29,151.391 233.5,152.5C 233.167,152.5 232.833,152.5 232.5,152.5C 229.196,150.176 225.862,147.843 222.5,145.5C 222.977,144.069 223.643,142.736 224.5,141.5C 225.425,142.641 226.259,142.641 227,141.5C 227.49,140.207 227.657,138.873 227.5,137.5C 228.5,137.5 229.5,137.5 230.5,137.5C 230.833,135.5 231.167,133.5 231.5,131.5C 232.5,131.5 233.5,131.5 234.5,131.5C 234.767,129.035 235.434,126.701 236.5,124.5C 238.138,123.841 239.805,123.174 241.5,122.5C 247.441,105.432 256.775,90.599 269.5,78C 282.83,66.9932 297.496,57.9932 313.5,51C 327.588,44.9647 342.255,42.9647 357.5,45C 383.521,50.1828 407.188,60.5161 428.5,76C 452.837,100.174 466.837,129.341 470.5,163.5C 468.786,184.355 463.619,204.355 455,223.5C 449.502,236.327 441.668,247.494 431.5,257C 431.833,257.333 432.167,257.667 432.5,258C 427.789,262.38 422.789,266.38 417.5,270C 416.929,271.205 416.262,272.372 415.5,273.5C 408.478,277.449 402.145,281.449 396.5,285.5C 395.289,286.274 395.289,287.107 396.5,288C 393.583,289.528 390.583,290.861 387.5,292C 388.5,292.333 389.5,292.667 390.5,293C 388.283,294.275 385.949,295.275 383.5,296C 384.167,296.333 384.833,296.667 385.5,297C 383.292,297.191 381.292,297.691 379.5,298.5 Z"/></g>
<g><path style="opacity:1" fill="#e4fef8" d="M 289.5,269.5 C 289.158,268.662 288.492,268.328 287.5,268.5C 285.514,262.878 283.514,257.211 281.5,251.5C 281.5,251.167 281.5,250.833 281.5,250.5C 288.749,254.712 296.582,258.712 305,262.5C 305.414,262.043 305.914,261.709 306.5,261.5C 316.884,265.961 327.551,269.628 338.5,272.5C 347.404,272.54 356.404,272.374 365.5,272C 408.551,260.949 435.718,233.782 447,190.5C 453.351,170.003 452.017,150.003 443,130.5C 433.745,105.248 416.912,87.081 392.5,76C 381.212,71.1263 369.546,67.4596 357.5,65C 338.483,63.0035 320.817,67.0035 304.5,77C 290.135,84.7016 278.301,95.2016 269,108.5C 266.091,115.324 262.424,121.658 258,127.5C 252.881,139.096 248.047,150.762 243.5,162.5C 243.167,162.5 242.833,162.5 242.5,162.5C 239.257,159.38 236.257,156.047 233.5,152.5C 234.29,151.391 234.79,150.058 235,148.5C 235.333,149.167 235.667,149.833 236,150.5C 236.274,147.285 237.607,144.619 240,142.5C 241.919,138.317 243.586,133.984 245,129.5C 245.333,129.833 245.667,130.167 246,130.5C 246.806,126.191 248.973,122.858 252.5,120.5C 256.301,110.895 261.134,101.895 267,93.5C 285.823,74.3702 308.323,61.5369 334.5,55C 365.534,54.0098 393.867,62.3431 419.5,80C 443.485,103.138 457.485,131.304 461.5,164.5C 460.365,180.042 456.865,195.042 451,209.5C 442.168,236.054 425.335,255.554 400.5,268C 401.833,268.667 401.833,269.333 400.5,270C 395.833,272.333 391.167,274.667 386.5,277C 386.833,277.333 387.167,277.667 387.5,278C 371.695,286.777 354.361,288.777 335.5,284C 319.428,278.293 304.094,273.46 289.5,269.5 Z"/></g>
<g><path style="opacity:1" fill="#dcfdf6" d="M 281.5,250.5 C 280.939,244.787 278.439,240.12 274,236.5C 272.046,230.594 269.046,225.26 265,220.5C 258.992,209.799 254.159,198.633 250.5,187C 250.833,186.667 251.167,186.333 251.5,186C 249.538,179.272 247.871,172.439 246.5,165.5C 245.145,164.812 244.145,163.812 243.5,162.5C 248.047,150.762 252.881,139.096 258,127.5C 262.424,121.658 266.091,115.324 269,108.5C 278.301,95.2016 290.135,84.7016 304.5,77C 320.817,67.0035 338.483,63.0035 357.5,65C 369.546,67.4596 381.212,71.1263 392.5,76C 416.912,87.081 433.745,105.248 443,130.5C 452.017,150.003 453.351,170.003 447,190.5C 435.718,233.782 408.551,260.949 365.5,272C 356.404,272.374 347.404,272.54 338.5,272.5C 327.551,269.628 316.884,265.961 306.5,261.5C 305.914,261.709 305.414,262.043 305,262.5C 296.582,258.712 288.749,254.712 281.5,250.5 Z"/></g>
<g><path style="opacity:1" fill="#d7fef5" d="M 294.5,236.5 C 307.232,244.686 321.232,251.186 336.5,256C 361.7,261.203 383.7,255.203 402.5,238C 430.254,213.068 441.088,182.235 435,145.5C 422.303,110.301 397.803,88.301 361.5,79.5C 347.483,81.1689 333.483,82.8356 319.5,84.5C 301.109,93.0521 286.609,106.052 276,123.5C 270.443,135.04 265.61,146.707 261.5,158.5C 260.515,160.066 259.681,162.399 259,165.5C 256.532,160.467 255.199,161.134 255,167.5C 254.667,167.167 254.333,166.833 254,166.5C 253.366,161.026 254.032,155.693 256,150.5C 256.333,150.833 256.667,151.167 257,151.5C 266.402,115.516 288.236,90.3497 322.5,76C 361.153,66.9934 393.987,77.16 421,106.5C 434.931,123.701 442.764,143.368 444.5,165.5C 440.169,217.968 412.836,251.135 362.5,265C 339.131,266.1 317.631,260.267 298,247.5C 297.282,248.451 296.449,248.617 295.5,248C 290.32,244.978 285.986,241.145 282.5,236.5C 282.667,235.833 282.833,235.167 283,234.5C 284.667,236.167 286.333,237.833 288,239.5C 287.626,237.231 287.626,234.898 288,232.5C 290,234.5 292,236.5 294,238.5C 294.464,237.906 294.631,237.239 294.5,236.5 Z"/></g>
<g><path style="opacity:1" fill="#9cffe1" d="M 361.5,79.5 C 363.081,81.1417 363.747,83.1417 363.5,85.5C 364.167,90.8333 364.833,96.1667 365.5,101.5C 367.527,115.46 369.193,129.46 370.5,143.5C 383.154,141.645 395.82,139.978 408.5,138.5C 413.595,138.238 418.595,137.572 423.5,136.5C 426.365,136.055 428.865,136.722 431,138.5C 432.254,150.203 433.754,161.869 435.5,173.5C 434.954,175.135 434.62,176.801 434.5,178.5C 432.784,178.629 431.117,178.962 429.5,179.5C 424.11,179.84 418.777,180.507 413.5,181.5C 408.405,181.762 403.405,182.428 398.5,183.5C 390.842,184.331 383.176,185.165 375.5,186C 377.128,194.221 378.461,202.388 379.5,210.5C 379.527,216.051 380.194,221.384 381.5,226.5C 381.762,231.595 382.428,236.595 383.5,241.5C 383.663,243.857 383.497,246.19 383,248.5C 382.097,249.701 380.931,250.535 379.5,251C 367.619,252.141 355.786,253.641 344,255.5C 342.019,255.371 340.353,254.704 339,253.5C 337.841,249.237 337.007,244.904 336.5,240.5C 336.16,235.11 335.493,229.777 334.5,224.5C 333.412,213.464 332.079,202.464 330.5,191.5C 318.315,192.763 306.315,194.429 294.5,196.5C 289.586,196.362 284.919,197.028 280.5,198.5C 277.428,198.817 274.428,198.484 271.5,197.5C 268.032,184.417 266.532,171.084 267,157.5C 267.816,156.177 268.983,155.511 270.5,155.5C 273.279,155.721 275.946,155.388 278.5,154.5C 283.547,154.078 288.547,153.411 293.5,152.5C 304.14,151.236 314.807,150.236 325.5,149.5C 324.159,137.326 322.493,125.326 320.5,113.5C 320.473,107.949 319.806,102.616 318.5,97.5C 318.795,95.2646 318.461,93.2646 317.5,91.5C 317.166,88.812 317.832,86.4786 319.5,84.5C 333.483,82.8356 347.483,81.1689 361.5,79.5 Z"/></g>
<g><path style="opacity:1" fill="#d0fef3" d="M 361.5,79.5 C 397.803,88.301 422.303,110.301 435,145.5C 441.088,182.235 430.254,213.068 402.5,238C 383.7,255.203 361.7,261.203 336.5,256C 321.232,251.186 307.232,244.686 294.5,236.5C 278.216,224.183 266.882,208.183 260.5,188.5C 260.709,187.914 261.043,187.414 261.5,187C 260.52,184.275 259.854,181.442 259.5,178.5C 260.277,171.838 260.944,165.172 261.5,158.5C 265.61,146.707 270.443,135.04 276,123.5C 286.609,106.052 301.109,93.0521 319.5,84.5C 317.832,86.4786 317.166,88.812 317.5,91.5C 317.586,92.4959 317.252,93.3292 316.5,94C 297.877,105.432 284.544,121.265 276.5,141.5C 272.769,145.34 270.769,150.006 270.5,155.5C 268.983,155.511 267.816,156.177 267,157.5C 266.532,171.084 268.032,184.417 271.5,197.5C 274.428,198.484 277.428,198.817 280.5,198.5C 281.978,198.238 283.311,198.571 284.5,199.5C 297.154,219.16 314.488,232.827 336.5,240.5C 337.007,244.904 337.841,249.237 339,253.5C 340.353,254.704 342.019,255.371 344,255.5C 355.786,253.641 367.619,252.141 379.5,251C 380.931,250.535 382.097,249.701 383,248.5C 383.497,246.19 383.663,243.857 383.5,241.5C 407.471,227.491 422.805,206.824 429.5,179.5C 431.117,178.962 432.784,178.629 434.5,178.5C 434.62,176.801 434.954,175.135 435.5,173.5C 433.754,161.869 432.254,150.203 431,138.5C 428.865,136.722 426.365,136.055 423.5,136.5C 414.12,118.951 400.786,105.118 383.5,95C 376.678,91.9065 370.011,88.7399 363.5,85.5C 363.747,83.1417 363.081,81.1417 361.5,79.5 Z"/></g>
<g><path style="opacity:1" fill="#05ffa8" d="M 356.5,83.5 C 357.5,83.5 358.5,83.5 359.5,83.5C 362.167,104.832 364.833,126.165 367.5,147.5C 387.505,145.277 407.505,142.944 427.5,140.5C 428.587,152.197 429.92,163.864 431.5,175.5C 411.46,177.505 391.46,179.838 371.5,182.5C 374.249,204.155 376.915,225.822 379.5,247.5C 366.851,248.998 354.184,250.331 341.5,251.5C 339.331,230.15 336.998,208.817 334.5,187.5C 314.139,189.587 293.806,191.92 273.5,194.5C 272.088,182.869 271.088,171.202 270.5,159.5C 290.198,157.413 309.864,155.079 329.5,152.5C 326.751,130.84 324.084,109.173 321.5,87.5C 333.405,87.0522 345.071,85.7189 356.5,83.5 Z"/></g>
<g><path style="opacity:1" fill="#c8fff2" d="M 363.5,85.5 C 370.011,88.7399 376.678,91.9065 383.5,95C 400.786,105.118 414.12,118.951 423.5,136.5C 418.595,137.572 413.595,138.238 408.5,138.5C 396.92,122.917 382.587,110.584 365.5,101.5C 364.833,96.1667 364.167,90.8333 363.5,85.5 Z"/></g>
<g><path style="opacity:1" fill="#cafef2" d="M 317.5,91.5 C 318.461,93.2646 318.795,95.2646 318.5,97.5C 318.657,98.8734 318.49,100.207 318,101.5C 299.653,115.341 286.487,133.008 278.5,154.5C 275.946,155.388 273.279,155.721 270.5,155.5C 270.769,150.006 272.769,145.34 276.5,141.5C 284.544,121.265 297.877,105.432 316.5,94C 317.252,93.3292 317.586,92.4959 317.5,91.5 Z"/></g>
<g><path style="opacity:1" fill="#c0fef0" d="M 318.5,97.5 C 319.806,102.616 320.473,107.949 320.5,113.5C 320.657,114.873 320.49,116.207 320,117.5C 309.203,127.8 300.369,139.467 293.5,152.5C 288.547,153.411 283.547,154.078 278.5,154.5C 286.487,133.008 299.653,115.341 318,101.5C 318.49,100.207 318.657,98.8734 318.5,97.5 Z"/></g>
<g><path style="opacity:1" fill="#b7ffee" d="M 365.5,101.5 C 382.587,110.584 396.92,122.917 408.5,138.5C 395.82,139.978 383.154,141.645 370.5,143.5C 369.193,129.46 367.527,115.46 365.5,101.5 Z"/></g>
<g><path style="opacity:1" fill="#b4ffee" d="M 320.5,113.5 C 322.493,125.326 324.159,137.326 325.5,149.5C 314.807,150.236 304.14,151.236 293.5,152.5C 300.369,139.467 309.203,127.8 320,117.5C 320.49,116.207 320.657,114.873 320.5,113.5 Z"/></g>
<g><path style="opacity:1" fill="#f0f6f5" d="M 209.5,126.5 C 211.167,126.5 212.833,126.5 214.5,126.5C 214.5,127.5 214.5,128.5 214.5,129.5C 214.226,134.38 214.559,139.38 215.5,144.5C 207.961,170.631 210.628,195.631 223.5,219.5C 223.957,220.298 224.624,220.631 225.5,220.5C 227.269,235.664 229.269,250.664 231.5,265.5C 231.5,266.5 231.5,267.5 231.5,268.5C 230.842,269.398 230.176,270.398 229.5,271.5C 218.566,264.734 209.399,256.067 202,245.5C 201.51,246.793 201.343,248.127 201.5,249.5C 200.167,249.5 198.833,249.5 197.5,249.5C 198.209,248.596 199.209,248.263 200.5,248.5C 197.715,221.27 194.382,194.103 190.5,167C 190.164,165.97 189.497,165.47 188.5,165.5C 187.391,164.71 186.058,164.21 184.5,164C 185.996,153.023 188.329,142.19 191.5,131.5C 190.398,130.824 189.398,130.158 188.5,129.5C 195.698,128.953 202.698,127.953 209.5,126.5 Z"/></g>
<g><path style="opacity:1" fill="#f5f5f5" d="M 188.5,129.5 C 189.398,130.158 190.398,130.824 191.5,131.5C 188.329,142.19 185.996,153.023 184.5,164C 186.058,164.21 187.391,164.71 188.5,165.5C 135.479,171.753 82.4786,178.253 29.5,185C 28.8922,186.231 28.5589,187.564 28.5,189C 31.8898,215.503 35.2231,242.003 38.5,268.5C 91.4909,262.084 144.491,255.751 197.5,249.5C 198.833,249.5 200.167,249.5 201.5,249.5C 201.343,248.127 201.51,246.793 202,245.5C 209.399,256.067 218.566,264.734 229.5,271.5C 230.176,270.398 230.842,269.398 231.5,268.5C 232.125,275.876 233.125,283.209 234.5,290.5C 234.197,292.114 233.53,293.448 232.5,294.5C 177.041,300.849 121.708,307.849 66.5,315.5C 44.1903,318.364 21.857,321.031 -0.5,323.5C -0.5,306.833 -0.5,290.167 -0.5,273.5C 6.83333,272.833 14.1667,272.167 21.5,271.5C 18.1664,243.498 14.8331,215.498 11.5,187.5C 7.51914,188.021 3.51914,188.354 -0.5,188.5C -0.5,176.833 -0.5,165.167 -0.5,153.5C 62.5206,145.581 125.521,137.581 188.5,129.5 Z"/></g>
<g><path style="opacity:1" fill="#ecf7f5" d="M 236.5,124.5 C 235.434,126.701 234.767,129.035 234.5,131.5C 233.5,131.5 232.5,131.5 231.5,131.5C 231.167,133.5 230.833,135.5 230.5,137.5C 229.5,137.5 228.5,137.5 227.5,137.5C 227.657,138.873 227.49,140.207 227,141.5C 226.259,142.641 225.425,142.641 224.5,141.5C 223.643,142.736 222.977,144.069 222.5,145.5C 225.862,147.843 229.196,150.176 232.5,152.5C 232.657,153.873 232.49,155.207 232,156.5C 229.785,158.79 228.119,161.457 227,164.5C 226.333,163.833 225.667,163.167 225,162.5C 224.667,164.167 224.333,165.833 224,167.5C 223.667,166.833 223.333,166.167 223,165.5C 222.118,168.789 221.452,172.123 221,175.5C 220.24,171.181 219.573,166.848 219,162.5C 219.862,178.722 221.696,194.722 224.5,210.5C 224.616,213.86 224.949,217.193 225.5,220.5C 224.624,220.631 223.957,220.298 223.5,219.5C 210.628,195.631 207.961,170.631 215.5,144.5C 214.559,139.38 214.226,134.38 214.5,129.5C 216.048,129.179 216.715,128.179 216.5,126.5C 218.5,126.167 220.5,125.833 222.5,125.5C 224.428,127.247 226.594,128.913 229,130.5C 229.813,128.564 230.313,126.564 230.5,124.5C 232.81,124.242 234.81,124.242 236.5,124.5 Z"/></g>
<g><path style="opacity:1" fill="#ddf6f1" d="M 242.5,162.5 C 242.833,162.5 243.167,162.5 243.5,162.5C 244.145,163.812 245.145,164.812 246.5,165.5C 247.871,172.439 249.538,179.272 251.5,186C 251.167,186.333 250.833,186.667 250.5,187C 254.159,198.633 258.992,209.799 265,220.5C 269.046,225.26 272.046,230.594 274,236.5C 278.439,240.12 280.939,244.787 281.5,250.5C 281.5,250.833 281.5,251.167 281.5,251.5C 279.871,250.375 278.371,249.041 277,247.5C 275.434,248.061 274.101,247.394 273,245.5C 272.667,245.833 272.333,246.167 272,246.5C 269.532,243.28 266.865,240.28 264,237.5C 263.333,238.833 262.667,238.833 262,237.5C 261,235.833 260,234.167 259,232.5C 257.84,234.797 256.84,234.464 256,231.5C 255.667,231.833 255.333,232.167 255,232.5C 247.575,218.813 241.075,204.646 235.5,190C 236.078,188.189 236.578,186.355 237,184.5C 237.889,185.888 238.389,185.722 238.5,184C 238.265,183.127 237.931,182.293 237.5,181.5C 237.846,180.304 238.346,180.304 239,181.5C 240.564,179.335 240.397,177.668 238.5,176.5C 241.22,172.233 242.554,167.566 242.5,162.5 Z"/></g>
<g><path style="opacity:1" fill="#06bffe" d="M 188.5,165.5 C 189.497,165.47 190.164,165.97 190.5,167C 194.382,194.103 197.715,221.27 200.5,248.5C 199.209,248.263 198.209,248.596 197.5,249.5C 144.491,255.751 91.4909,262.084 38.5,268.5C 35.2231,242.003 31.8898,215.503 28.5,189C 28.5589,187.564 28.8922,186.231 29.5,185C 82.4786,178.253 135.479,171.753 188.5,165.5 Z"/></g>
<g><path style="opacity:1" fill="#e3f3ef" d="M 232.5,152.5 C 232.833,152.5 233.167,152.5 233.5,152.5C 236.257,156.047 239.257,159.38 242.5,162.5C 242.554,167.566 241.22,172.233 238.5,176.5C 240.397,177.668 240.564,179.335 239,181.5C 238.346,180.304 237.846,180.304 237.5,181.5C 237.931,182.293 238.265,183.127 238.5,184C 238.389,185.722 237.889,185.888 237,184.5C 236.578,186.355 236.078,188.189 235.5,190C 241.075,204.646 247.575,218.813 255,232.5C 255.333,232.167 255.667,231.833 256,231.5C 256.84,234.464 257.84,234.797 259,232.5C 260,234.167 261,235.833 262,237.5C 262.667,238.833 263.333,238.833 264,237.5C 266.865,240.28 269.532,243.28 272,246.5C 272.333,246.167 272.667,245.833 273,245.5C 274.101,247.394 275.434,248.061 277,247.5C 278.371,249.041 279.871,250.375 281.5,251.5C 283.514,257.211 285.514,262.878 287.5,268.5C 285.956,268.297 284.622,267.63 283.5,266.5C 281.316,267.108 279.316,266.441 277.5,264.5C 276.094,265.668 274.928,265.335 274,263.5C 272.846,265.957 271.512,265.957 270,263.5C 267.152,264.257 264.819,263.257 263,260.5C 262.536,261.094 262.369,261.761 262.5,262.5C 261.312,261.316 260.145,261.316 259,262.5C 258.333,261.833 257.667,261.167 257,260.5C 255.684,261.974 254.684,263.641 254,265.5C 252.221,262.724 251.221,263.057 251,266.5C 250.667,266.167 250.333,265.833 250,265.5C 249.583,266.756 248.75,267.423 247.5,267.5C 242.533,246.563 235.033,226.563 225,207.5C 224.517,208.448 224.351,209.448 224.5,210.5C 221.696,194.722 219.862,178.722 219,162.5C 219.573,166.848 220.24,171.181 221,175.5C 221.452,172.123 222.118,168.789 223,165.5C 223.333,166.167 223.667,166.833 224,167.5C 224.333,165.833 224.667,164.167 225,162.5C 225.667,163.167 226.333,163.833 227,164.5C 228.119,161.457 229.785,158.79 232,156.5C 232.49,155.207 232.657,153.873 232.5,152.5 Z"/></g>
<g><path style="opacity:1" fill="#c8fff2" d="M 429.5,179.5 C 422.805,206.824 407.471,227.491 383.5,241.5C 382.428,236.595 381.762,231.595 381.5,226.5C 396.353,214.454 407.02,199.454 413.5,181.5C 418.777,180.507 424.11,179.84 429.5,179.5 Z"/></g>
<g><path style="opacity:1" fill="#baffef" d="M 413.5,181.5 C 407.02,199.454 396.353,214.454 381.5,226.5C 380.194,221.384 379.527,216.051 379.5,210.5C 387.771,202.891 394.104,193.891 398.5,183.5C 403.405,182.428 408.405,181.762 413.5,181.5 Z"/></g>
<g><path style="opacity:1" fill="#b0ffed" d="M 398.5,183.5 C 394.104,193.891 387.771,202.891 379.5,210.5C 378.461,202.388 377.128,194.221 375.5,186C 383.176,185.165 390.842,184.331 398.5,183.5 Z"/></g>
<g><path style="opacity:1" fill="#cccccc" d="M -0.5,273.5 C -0.5,245.167 -0.5,216.833 -0.5,188.5C 3.51914,188.354 7.51914,188.021 11.5,187.5C 14.8331,215.498 18.1664,243.498 21.5,271.5C 14.1667,272.167 6.83333,272.833 -0.5,273.5 Z"/></g>
<g><path style="opacity:1" fill="#b5feee" d="M 334.5,224.5 C 328.076,222.431 322.076,218.931 316.5,214C 310.779,208.279 305.113,202.613 299.5,197C 297.866,196.506 296.199,196.34 294.5,196.5C 306.315,194.429 318.315,192.763 330.5,191.5C 332.079,202.464 333.412,213.464 334.5,224.5 Z"/></g>
<g><path style="opacity:1" fill="#c2fdf0" d="M 294.5,196.5 C 296.199,196.34 297.866,196.506 299.5,197C 305.113,202.613 310.779,208.279 316.5,214C 322.076,218.931 328.076,222.431 334.5,224.5C 335.493,229.777 336.16,235.11 336.5,240.5C 314.488,232.827 297.154,219.16 284.5,199.5C 283.311,198.571 281.978,198.238 280.5,198.5C 284.919,197.028 289.586,196.362 294.5,196.5 Z"/></g>
<g><path style="opacity:1" fill="#e5eae9" d="M 247.5,267.5 C 248.601,272.167 249.768,276.834 251,281.5C 252,282.5 253,283.5 254,284.5C 258.19,294.29 263.023,303.623 268.5,312.5C 264.727,313.103 261.061,313.77 257.5,314.5C 255.5,314.5 253.5,314.5 251.5,314.5C 248.42,310.225 245.92,305.558 244,300.5C 242.086,291.247 238.919,282.58 234.5,274.5C 233.853,270.675 232.853,267.675 231.5,265.5C 229.269,250.664 227.269,235.664 225.5,220.5C 224.949,217.193 224.616,213.86 224.5,210.5C 224.351,209.448 224.517,208.448 225,207.5C 235.033,226.563 242.533,246.563 247.5,267.5 Z"/></g>
<g><path style="opacity:1" fill="#ebf0ef" d="M 262.5,262.5 C 264.497,267.327 265.997,272.327 267,277.5C 269.141,282.254 271.475,286.921 274,291.5C 275.512,292.257 276.846,293.257 278,294.5C 277.217,292.655 276.884,290.655 277,288.5C 282.612,291.617 287.445,295.617 291.5,300.5C 296.06,303.797 301.06,306.13 306.5,307.5C 294.075,309.971 281.408,311.637 268.5,312.5C 263.023,303.623 258.19,294.29 254,284.5C 253,283.5 252,282.5 251,281.5C 249.768,276.834 248.601,272.167 247.5,267.5C 248.75,267.423 249.583,266.756 250,265.5C 250.333,265.833 250.667,266.167 251,266.5C 251.221,263.057 252.221,262.724 254,265.5C 254.684,263.641 255.684,261.974 257,260.5C 257.667,261.167 258.333,261.833 259,262.5C 260.145,261.316 261.312,261.316 262.5,262.5 Z"/></g>
<g><path style="opacity:1" fill="#e3e3e3" d="M 251.5,314.5 C 239.567,316.377 227.567,318.043 215.5,319.5C 221.236,310.923 227.569,302.757 234.5,295C 233.906,294.536 233.239,294.369 232.5,294.5C 233.53,293.448 234.197,292.114 234.5,290.5C 233.125,283.209 232.125,275.876 231.5,268.5C 231.5,267.5 231.5,266.5 231.5,265.5C 232.853,267.675 233.853,270.675 234.5,274.5C 238.919,282.58 242.086,291.247 244,300.5C 245.92,305.558 248.42,310.225 251.5,314.5 Z"/></g>
<g><path style="opacity:1" fill="#ecf7f4" d="M 287.5,268.5 C 288.492,268.328 289.158,268.662 289.5,269.5C 291.687,275.367 295.021,280.533 299.5,285C 304.258,287.811 309.424,290.645 315,293.5C 315.333,293.167 315.667,292.833 316,292.5C 316.853,294.125 317.853,294.458 319,293.5C 334.309,296.868 349.809,298.701 365.5,299C 364.584,299.278 363.918,299.778 363.5,300.5C 344.591,303.481 325.591,305.814 306.5,307.5C 301.06,306.13 296.06,303.797 291.5,300.5C 287.445,295.617 282.612,291.617 277,288.5C 276.884,290.655 277.217,292.655 278,294.5C 276.846,293.257 275.512,292.257 274,291.5C 271.475,286.921 269.141,282.254 267,277.5C 265.997,272.327 264.497,267.327 262.5,262.5C 262.369,261.761 262.536,261.094 263,260.5C 264.819,263.257 267.152,264.257 270,263.5C 271.512,265.957 272.846,265.957 274,263.5C 274.928,265.335 276.094,265.668 277.5,264.5C 279.316,266.441 281.316,267.108 283.5,266.5C 284.622,267.63 285.956,268.297 287.5,268.5 Z"/></g>
<g><path style="opacity:1" fill="#959595" d="M 232.5,294.5 C 233.239,294.369 233.906,294.536 234.5,295C 227.569,302.757 221.236,310.923 215.5,319.5C 203.197,334.646 191.031,349.98 179,365.5C 177.097,367.441 176.264,369.774 176.5,372.5C 174.692,371.683 173.192,372.35 172,374.5C 150.001,403.328 127.834,431.995 105.5,460.5C 93.269,475.948 81.269,491.615 69.5,507.5C 68.036,500.863 66.7026,494.196 65.5,487.5C 62.3017,455.379 58.3017,423.379 53.5,391.5C 53.0829,383.411 52.0829,375.411 50.5,367.5C 49.3329,358.168 48.4995,348.835 48,339.5C 54.4175,331.65 60.5842,323.65 66.5,315.5C 121.708,307.849 177.041,300.849 232.5,294.5 Z"/></g>
<g><path style="opacity:1" fill="#dee2e1" d="M 409.5,305.5 C 413.521,313.275 415.521,321.609 415.5,330.5C 415.5,332.167 415.5,333.833 415.5,335.5C 406.504,337.499 397.504,339.499 388.5,341.5C 387.056,340.019 386.389,340.352 386.5,342.5C 385.448,341.47 384.114,340.803 382.5,340.5C 358.19,343.747 333.856,346.747 309.5,349.5C 306.774,349.736 304.441,348.903 302.5,347C 289.5,336.667 276.5,326.333 263.5,316C 261.655,314.872 259.655,314.372 257.5,314.5C 261.061,313.77 264.727,313.103 268.5,312.5C 281.408,311.637 294.075,309.971 306.5,307.5C 325.591,305.814 344.591,303.481 363.5,300.5C 368.956,300.482 374.289,299.815 379.5,298.5C 391.014,295.249 401.014,297.582 409.5,305.5 Z"/></g>
<g><path style="opacity:1" fill="#f6f6f6" d="M 416.5,302.5 C 423.61,305.892 430.277,310.059 436.5,315C 435.315,316.353 433.981,317.52 432.5,318.5C 432.667,318.833 432.833,319.167 433,319.5C 441.462,326.131 448.962,333.465 455.5,341.5C 460.912,352.662 466.079,363.995 471,375.5C 478.245,400.899 482.078,426.399 482.5,452C 481.267,469.468 477.434,486.635 471,503.5C 470.074,505.692 468.907,507.692 467.5,509.5C 457.833,509.5 448.167,509.5 438.5,509.5C 447.929,496.031 454.596,481.198 458.5,465C 462.172,432.295 457.339,400.462 444,369.5C 438.678,360.168 432.178,351.668 424.5,344C 425.624,343.751 426.624,343.251 427.5,342.5C 424.526,339.862 421.526,337.195 418.5,334.5C 419.376,333.749 420.376,333.249 421.5,333C 420.192,330.043 418.192,329.21 415.5,330.5C 415.521,321.609 413.521,313.275 409.5,305.5C 412.241,305.293 414.574,304.293 416.5,302.5 Z"/></g>
<g><path style="opacity:1" fill="#bfbfbf" d="M 251.5,314.5 C 253.5,314.5 255.5,314.5 257.5,314.5C 259.655,314.372 261.655,314.872 263.5,316C 276.5,326.333 289.5,336.667 302.5,347C 304.441,348.903 306.774,349.736 309.5,349.5C 309.5,350.167 309.167,350.5 308.5,350.5C 306.167,350.5 303.833,350.5 301.5,350.5C 302.829,358.12 303.829,365.786 304.5,373.5C 297.661,380.921 291.661,388.254 286.5,395.5C 285.645,390.144 284.645,384.811 283.5,379.5C 283.07,371.464 282.237,363.464 281,355.5C 280.326,354.422 279.326,353.755 278,353.5C 250.784,356.881 223.617,360.548 196.5,364.5C 200.214,391.454 203.714,418.454 207,445.5C 207.839,446.624 209.006,447.291 210.5,447.5C 217.122,446.339 223.789,445.672 230.5,445.5C 228.369,446.314 226.036,446.814 223.5,447C 225.686,447.604 225.852,448.77 224,450.5C 212.763,464.326 201.93,477.826 191.5,491C 192.416,491.278 193.082,491.778 193.5,492.5C 154.413,497.183 115.413,502.183 76.5,507.5C 74.1667,507.5 71.8333,507.5 69.5,507.5C 81.269,491.615 93.269,475.948 105.5,460.5C 132.596,457.405 159.596,453.738 186.5,449.5C 182.97,423.866 179.636,398.2 176.5,372.5C 176.264,369.774 177.097,367.441 179,365.5C 191.031,349.98 203.197,334.646 215.5,319.5C 227.567,318.043 239.567,316.377 251.5,314.5 Z"/></g>
<g><path style="opacity:1" fill="#d5d5d5" d="M 66.5,315.5 C 60.5842,323.65 54.4175,331.65 48,339.5C 48.4995,348.835 49.3329,358.168 50.5,367.5C 49.6862,365.369 49.1862,363.036 49,360.5C 48.6667,361.833 48.3333,363.167 48,364.5C 42.5636,359.567 36.3969,355.734 29.5,353C 21.0349,350.349 12.5349,347.849 4,345.5C 2.85252,346.458 1.85252,346.125 1,344.5C 0.617425,345.056 0.117425,345.389 -0.5,345.5C -0.5,338.167 -0.5,330.833 -0.5,323.5C 21.857,321.031 44.1903,318.364 66.5,315.5 Z"/></g>
<g><path style="opacity:1" fill="#e2e2e2" d="M 415.5,335.5 C 417.523,346.985 419.19,358.652 420.5,370.5C 423.907,395.835 427.241,421.169 430.5,446.5C 428.524,449.689 426.857,452.522 425.5,455C 426.567,460.988 425.234,466.488 421.5,471.5C 421.709,472.086 422.043,472.586 422.5,473C 419.42,479.081 415.92,484.914 412,490.5C 404.165,497.849 395.665,504.183 386.5,509.5C 365.5,509.5 344.5,509.5 323.5,509.5C 331.976,507.708 340.643,506.208 349.5,505C 355.643,502.397 361.977,500.397 368.5,499C 384.062,492.607 396.062,482.107 404.5,467.5C 400.157,466.54 395.824,466.373 391.5,467C 400.115,456.896 408.115,446.396 415.5,435.5C 410.323,430.824 404.99,426.324 399.5,422C 398.041,422.355 396.707,422.189 395.5,421.5C 392.566,395.156 389.566,368.823 386.5,342.5C 386.389,340.352 387.056,340.019 388.5,341.5C 397.504,339.499 406.504,337.499 415.5,335.5 Z"/></g>
<g><path style="opacity:1" fill="#f0f0f0" d="M 438.5,509.5 C 430.167,509.5 421.833,509.5 413.5,509.5C 429.398,496.269 438.398,479.436 440.5,459C 446.689,426.37 440.523,395.87 422,367.5C 421.768,368.737 421.268,369.737 420.5,370.5C 419.19,358.652 417.523,346.985 415.5,335.5C 415.5,333.833 415.5,332.167 415.5,330.5C 418.192,329.21 420.192,330.043 421.5,333C 420.376,333.249 419.376,333.749 418.5,334.5C 421.526,337.195 424.526,339.862 427.5,342.5C 426.624,343.251 425.624,343.751 424.5,344C 432.178,351.668 438.678,360.168 444,369.5C 457.339,400.462 462.172,432.295 458.5,465C 454.596,481.198 447.929,496.031 438.5,509.5 Z"/></g>
<g><path style="opacity:1" fill="#989898" d="M 386.5,342.5 C 389.566,368.823 392.566,395.156 395.5,421.5C 395.5,422.5 395.5,423.5 395.5,424.5C 374.111,426.84 352.778,429.507 331.5,432.5C 330.797,429.44 332.13,427.273 335.5,426C 335.167,425.667 334.833,425.333 334.5,425C 343.516,414.48 352.183,403.646 360.5,392.5C 354.46,387.126 348.126,382.126 341.5,377.5C 330.209,368.878 319.209,359.878 308.5,350.5C 309.167,350.5 309.5,350.167 309.5,349.5C 333.856,346.747 358.19,343.747 382.5,340.5C 384.114,340.803 385.448,341.47 386.5,342.5 Z"/></g>
<g><path style="opacity:1" fill="#dddddd" d="M 50.5,367.5 C 52.0829,375.411 53.0829,383.411 53.5,391.5C 52.8826,391.611 52.3826,391.944 52,392.5C 38.9157,374.96 21.4157,364.627 -0.5,361.5C -0.5,356.167 -0.5,350.833 -0.5,345.5C 0.117425,345.389 0.617425,345.056 1,344.5C 1.85252,346.125 2.85252,346.458 4,345.5C 12.5349,347.849 21.0349,350.349 29.5,353C 36.3969,355.734 42.5636,359.567 48,364.5C 48.3333,363.167 48.6667,361.833 49,360.5C 49.1862,363.036 49.6862,365.369 50.5,367.5 Z"/></g>
<g><path style="opacity:1" fill="#828282" d="M 283.5,379.5 C 282.502,379.587 281.335,379.92 280,380.5C 263.944,401.457 247.778,422.291 231.5,443C 233.058,443.21 234.391,443.71 235.5,444.5C 233.585,444.216 231.919,444.549 230.5,445.5C 223.789,445.672 217.122,446.339 210.5,447.5C 209.006,447.291 207.839,446.624 207,445.5C 203.714,418.454 200.214,391.454 196.5,364.5C 223.617,360.548 250.784,356.881 278,353.5C 279.326,353.755 280.326,354.422 281,355.5C 282.237,363.464 283.07,371.464 283.5,379.5 Z"/></g>
<g><path style="opacity:1" fill="#e3e3e3" d="M -0.5,361.5 C 21.4157,364.627 38.9157,374.96 52,392.5C 52.3826,391.944 52.8826,391.611 53.5,391.5C 58.3017,423.379 62.3017,455.379 65.5,487.5C 60.5004,468.334 55.3337,448.334 50,427.5C 41.249,401.355 24.4156,385.355 -0.5,379.5C -0.5,373.5 -0.5,367.5 -0.5,361.5 Z"/></g>
<g><path style="opacity:1" fill="#8c8c8c" d="M 308.5,350.5 C 319.209,359.878 330.209,368.878 341.5,377.5C 331.52,391.474 321.186,405.141 310.5,418.5C 309.601,411.445 308.601,404.445 307.5,397.5C 306.788,389.421 305.788,381.421 304.5,373.5C 303.829,365.786 302.829,358.12 301.5,350.5C 303.833,350.5 306.167,350.5 308.5,350.5 Z"/></g>
<g><path style="opacity:1" fill="#eaeaea" d="M 413.5,509.5 C 404.5,509.5 395.5,509.5 386.5,509.5C 395.665,504.183 404.165,497.849 412,490.5C 415.92,484.914 419.42,479.081 422.5,473C 422.043,472.586 421.709,472.086 421.5,471.5C 425.234,466.488 426.567,460.988 425.5,455C 426.857,452.522 428.524,449.689 430.5,446.5C 427.241,421.169 423.907,395.835 420.5,370.5C 421.268,369.737 421.768,368.737 422,367.5C 440.523,395.87 446.689,426.37 440.5,459C 438.398,479.436 429.398,496.269 413.5,509.5 Z"/></g>
<g><path style="opacity:1" fill="#828282" d="M 176.5,372.5 C 179.636,398.2 182.97,423.866 186.5,449.5C 159.596,453.738 132.596,457.405 105.5,460.5C 127.834,431.995 150.001,403.328 172,374.5C 173.192,372.35 174.692,371.683 176.5,372.5 Z"/></g>
<g><path style="opacity:1" fill="#cacaca" d="M 304.5,373.5 C 305.788,381.421 306.788,389.421 307.5,397.5C 304.589,399.239 302.089,401.572 300,404.5C 296.203,409.435 292.703,414.435 289.5,419.5C 287.773,411.727 286.773,403.727 286.5,395.5C 291.661,388.254 297.661,380.921 304.5,373.5 Z"/></g>
<g><path style="opacity:1" fill="#929292" d="M 341.5,377.5 C 348.126,382.126 354.46,387.126 360.5,392.5C 352.183,403.646 343.516,414.48 334.5,425C 334.833,425.333 335.167,425.667 335.5,426C 332.13,427.273 330.797,429.44 331.5,432.5C 326.972,432.77 322.639,433.437 318.5,434.5C 316.5,434.5 314.5,434.5 312.5,434.5C 312.156,430.106 311.49,425.772 310.5,421.5C 310.5,420.5 310.5,419.5 310.5,418.5C 321.186,405.141 331.52,391.474 341.5,377.5 Z"/></g>
<g><path style="opacity:1" fill="#eaeaea" d="M -0.5,379.5 C 24.4156,385.355 41.249,401.355 50,427.5C 55.3337,448.334 60.5004,468.334 65.5,487.5C 66.7026,494.196 68.036,500.863 69.5,507.5C 71.8333,507.5 74.1667,507.5 76.5,507.5C 75.8333,508.167 75.1667,508.833 74.5,509.5C 68.8333,509.5 63.1667,509.5 57.5,509.5C 53.3926,499.085 49.8926,488.418 47,477.5C 44.2562,456.4 37.9229,436.4 28,417.5C 23.7905,412.125 18.9572,407.292 13.5,403C 9.19154,400.012 4.52487,397.845 -0.5,396.5C -0.5,390.833 -0.5,385.167 -0.5,379.5 Z"/></g>
<g><path style="opacity:1" fill="#878787" d="M 283.5,379.5 C 284.645,384.811 285.645,390.144 286.5,395.5C 286.773,403.727 287.773,411.727 289.5,419.5C 289.833,425.5 290.167,431.5 290.5,437.5C 286.316,437.851 282.316,438.518 278.5,439.5C 270.048,439.851 261.714,440.851 253.5,442.5C 247.428,442.676 241.428,443.343 235.5,444.5C 234.391,443.71 233.058,443.21 231.5,443C 247.778,422.291 263.944,401.457 280,380.5C 281.335,379.92 282.502,379.587 283.5,379.5 Z"/></g>
<g><path style="opacity:1" fill="#f0f0f0" d="M -0.5,396.5 C 4.52487,397.845 9.19154,400.012 13.5,403C 18.9572,407.292 23.7905,412.125 28,417.5C 37.9229,436.4 44.2562,456.4 47,477.5C 49.8926,488.418 53.3926,499.085 57.5,509.5C 51.5,509.5 45.5,509.5 39.5,509.5C 33.6067,485.264 26.7733,461.264 19,437.5C 14.0186,429.021 7.51855,422.021 -0.5,416.5C -0.5,409.833 -0.5,403.167 -0.5,396.5 Z"/></g>
<g><path style="opacity:1" fill="#d0d0d0" d="M 307.5,397.5 C 308.601,404.445 309.601,411.445 310.5,418.5C 310.5,419.5 310.5,420.5 310.5,421.5C 309.778,421.082 309.278,420.416 309,419.5C 292.544,441.555 275.711,463.389 258.5,485C 250.493,485.834 242.493,486.668 234.5,487.5C 247.263,472.715 259.597,457.382 271.5,441.5C 273.969,440.832 276.302,440.165 278.5,439.5C 282.316,438.518 286.316,437.851 290.5,437.5C 290.167,431.5 289.833,425.5 289.5,419.5C 292.703,414.435 296.203,409.435 300,404.5C 302.089,401.572 304.589,399.239 307.5,397.5 Z"/></g>
<g><path style="opacity:1" fill="#f7f7f7" d="M -0.5,416.5 C 7.51855,422.021 14.0186,429.021 19,437.5C 26.7733,461.264 33.6067,485.264 39.5,509.5C 26.1667,509.5 12.8333,509.5 -0.5,509.5C -0.5,478.5 -0.5,447.5 -0.5,416.5 Z"/></g>
<g><path style="opacity:1" fill="#d7d7d7" d="M 310.5,421.5 C 311.49,425.772 312.156,430.106 312.5,434.5C 314.5,434.5 316.5,434.5 318.5,434.5C 307.063,449.723 295.396,464.723 283.5,479.5C 284.833,479.833 286.167,480.167 287.5,480.5C 319.102,476.091 350.769,472.591 382.5,470C 372.11,479.268 360.11,485.935 346.5,490C 330.354,493.895 314.021,496.895 297.5,499C 270.646,502.189 243.98,505.689 217.5,509.5C 169.833,509.5 122.167,509.5 74.5,509.5C 75.1667,508.833 75.8333,508.167 76.5,507.5C 115.413,502.183 154.413,497.183 193.5,492.5C 201.503,491.499 209.503,490.499 217.5,489.5C 223.116,488.46 228.783,487.793 234.5,487.5C 242.493,486.668 250.493,485.834 258.5,485C 275.711,463.389 292.544,441.555 309,419.5C 309.278,420.416 309.778,421.082 310.5,421.5 Z"/></g>
<g><path style="opacity:1" fill="#dddddd" d="M 395.5,421.5 C 396.707,422.189 398.041,422.355 399.5,422C 404.99,426.324 410.323,430.824 415.5,435.5C 408.115,446.396 400.115,456.896 391.5,467C 395.824,466.373 400.157,466.54 404.5,467.5C 396.062,482.107 384.062,492.607 368.5,499C 361.977,500.397 355.643,502.397 349.5,505C 340.643,506.208 331.976,507.708 323.5,509.5C 288.167,509.5 252.833,509.5 217.5,509.5C 243.98,505.689 270.646,502.189 297.5,499C 314.021,496.895 330.354,493.895 346.5,490C 360.11,485.935 372.11,479.268 382.5,470C 350.769,472.591 319.102,476.091 287.5,480.5C 286.167,480.167 284.833,479.833 283.5,479.5C 295.396,464.723 307.063,449.723 318.5,434.5C 322.639,433.437 326.972,432.77 331.5,432.5C 352.778,429.507 374.111,426.84 395.5,424.5C 395.5,423.5 395.5,422.5 395.5,421.5 Z"/></g>
<g><path style="opacity:1" fill="#cacaca" d="M 278.5,439.5 C 276.302,440.165 273.969,440.832 271.5,441.5C 259.597,457.382 247.263,472.715 234.5,487.5C 228.783,487.793 223.116,488.46 217.5,489.5C 216.737,488.732 215.737,488.232 214.5,488C 225.213,474.076 236.046,460.243 247,446.5C 247.483,445.552 247.649,444.552 247.5,443.5C 249.735,443.795 251.735,443.461 253.5,442.5C 261.714,440.851 270.048,439.851 278.5,439.5 Z"/></g>
<g><path style="opacity:1" fill="#c4c4c4" d="M 253.5,442.5 C 251.735,443.461 249.735,443.795 247.5,443.5C 247.649,444.552 247.483,445.552 247,446.5C 236.046,460.243 225.213,474.076 214.5,488C 215.737,488.232 216.737,488.732 217.5,489.5C 209.503,490.499 201.503,491.499 193.5,492.5C 193.082,491.778 192.416,491.278 191.5,491C 201.93,477.826 212.763,464.326 224,450.5C 225.852,448.77 225.686,447.604 223.5,447C 226.036,446.814 228.369,446.314 230.5,445.5C 231.919,444.549 233.585,444.216 235.5,444.5C 241.428,443.343 247.428,442.676 253.5,442.5 Z"/></g>
</svg>
