<?xml version="1.0" encoding="UTF-8" standalone="no" ?>
<!DOCTYPE svg PUBLIC "-//W3C//DTD SVG 1.1//EN" "http://www.w3.org/Graphics/SVG/1.1/DTD/svg11.dtd">
<svg xmlns="http://www.w3.org/2000/svg" xmlns:xlink="http://www.w3.org/1999/xlink" version="1.1" width="640" height="640" viewBox="0 0 640 640" xml:space="preserve">
<desc>Created with Fabric.js 3.6.6</desc>
<defs>
</defs>
<g transform="matrix(1 0 0 1 230 190)"  >
<g style=""   >
</g>
</g>
<g transform="matrix(3.49 -1.12 1.12 3.49 218.69 417.72)"  >
<g style=""   >
		<g transform="matrix(1 0 0 1 24.97 34)"  >
<path style="stroke: none; stroke-width: 1; stroke-dasharray: none; stroke-linecap: butt; stroke-dashoffset: 0; stroke-linejoin: miter; stroke-miterlimit: 4; fill: rgb(226,226,226); fill-rule: nonzero; opacity: 1;"  transform=" translate(-120.97, -130)" d="M 177.94 160 H 56 V 100 H 177.94 a 8 8 0 0 1 8 8 v 44 A 8 8 0 0 1 177.94 160 Z" stroke-linecap="round" />
</g>
		<g transform="matrix(1 0 0 1 -10.99 34)"  >
<rect style="stroke: none; stroke-width: 1; stroke-dasharray: none; stroke-linecap: butt; stroke-dashoffset: 0; stroke-linejoin: miter; stroke-miterlimit: 4; fill: rgb(153,153,153); fill-rule: nonzero; opacity: 1;"  x="-15" y="-15" rx="0" ry="0" width="30" height="30" />
</g>
		<g transform="matrix(1 0 0 1 26.51 34)"  >
<rect style="stroke: none; stroke-width: 1; stroke-dasharray: none; stroke-linecap: butt; stroke-dashoffset: 0; stroke-linejoin: miter; stroke-miterlimit: 4; fill: rgb(153,153,153); fill-rule: nonzero; opacity: 1;"  x="-15" y="-15" rx="0" ry="0" width="30" height="30" />
</g>
		<g transform="matrix(1 0 0 1 64 34)"  >
<rect style="stroke: none; stroke-width: 1; stroke-dasharray: none; stroke-linecap: butt; stroke-dashoffset: 0; stroke-linejoin: miter; stroke-miterlimit: 4; fill: rgb(153,153,153); fill-rule: nonzero; opacity: 1;"  x="-15" y="-15" rx="0" ry="0" width="30" height="30" />
</g>
		<g transform="matrix(1 0 0 1 -6 0)"  >
<polygon style="stroke: none; stroke-width: 1; stroke-dasharray: none; stroke-linecap: butt; stroke-dashoffset: 0; stroke-linejoin: miter; stroke-miterlimit: 4; fill: rgb(149,149,149); fill-rule: nonzero; opacity: 1;"  points="34,-64 -34,4 -34,64 34,-4 34,-64 " />
</g>
		<g transform="matrix(1 0 0 1 -30 -34)"  >
<path style="stroke: none; stroke-width: 1; stroke-dasharray: none; stroke-linecap: butt; stroke-dashoffset: 0; stroke-linejoin: miter; stroke-miterlimit: 4; fill: rgb(246,246,246); fill-rule: nonzero; opacity: 1;"  transform=" translate(-66, -62)" d="M 124 92 H 16 a 8 8 0 0 1 -8 -8 V 40 a 8 8 0 0 1 8 -8 H 124 Z" stroke-linecap="round" />
</g>
		<g transform="matrix(1 0 0 1 -61 -36.47)"  >
<rect style="stroke: none; stroke-width: 1; stroke-dasharray: none; stroke-linecap: butt; stroke-dashoffset: 0; stroke-linejoin: miter; stroke-miterlimit: 4; fill: rgb(204,204,204); fill-rule: nonzero; opacity: 1;"  x="-15" y="-15" rx="0" ry="0" width="30" height="30" />
</g>
		<g transform="matrix(1 0 0 1 -10.99 -36.47)"  >
<rect style="stroke: none; stroke-width: 1; stroke-dasharray: none; stroke-linecap: butt; stroke-dashoffset: 0; stroke-linejoin: miter; stroke-miterlimit: 4; fill: rgb(0,191,255); fill-rule: nonzero; opacity: 1;"  x="-29.01" y="-15" rx="0" ry="0" width="58.02" height="30" />
</g>
		<g transform="matrix(1 0 0 1 24.97 34)"  >
<linearGradient id="SVGID_5" gradientUnits="userSpaceOnUse" gradientTransform="matrix(1 0 0 1 -120.97 -130)"  x1="90" y1="126" x2="154.97" y2="190.97">
<stop offset="32%" style="stop-color:rgb(0,0,0);stop-opacity: 0.15"/>
<stop offset="62%" style="stop-color:rgb(0,0,0);stop-opacity: 0.02"/>
<stop offset="100%" style="stop-color:rgb(0,0,0);stop-opacity: 0"/>
</linearGradient>
<polygon style="stroke: none; stroke-width: 1; stroke-dasharray: none; stroke-linecap: butt; stroke-dashoffset: 0; stroke-linejoin: miter; stroke-miterlimit: 4; fill: url(#SVGID_5); fill-rule: nonzero; opacity: 1;"  points="-4.97,-30 -64.97,30 64.97,30 64.97,23.94 11.03,-30 -4.97,-30 " />
</g>
</g>
</g>
<g transform="matrix(1.27 -0.42 0.42 1.27 447.01 198.99)" style=""  >
		<text xml:space="preserve" font-family="'Open Sans', sans-serif" font-size="18" font-style="normal" font-weight="normal" style="stroke: rgb(51,255,222); stroke-opacity: 0.36; stroke-width: 16; stroke-dasharray: ; stroke-linecap: butt; stroke-dashoffset: 0; stroke-linejoin: round; stroke-miterlimit: 4; fill: rgb(90,217,167); fill-rule: nonzero; opacity: 1; white-space: pre;" ><tspan x="-114.53" y="125.66" style="font-size: 400px; ">+</tspan></text>
</g>
<g transform="matrix(1.27 -0.42 0.42 1.27 445.46 200.02)" style=""  >
		<text xml:space="preserve" font-family="'Open Sans', sans-serif" font-size="18" font-style="normal" font-weight="normal" style="stroke: rgb(51,255,222); stroke-opacity: 0; stroke-width: 16; stroke-dasharray: ; stroke-linecap: butt; stroke-dashoffset: 0; stroke-linejoin: round; stroke-miterlimit: 4; fill: rgb(90,217,167); fill-rule: nonzero; opacity: 1; white-space: pre;" ><tspan x="-114.53" y="125.66" style="font-size: 400px; ">+</tspan></text>
</g>
</svg>